<svg width="84" height="84" viewBox="0 0 84 84" fill="none" xmlns="http://www.w3.org/2000/svg">
<circle cx="42" cy="42" r="42" fill="white" fill-opacity="0.3"/>
<path d="M65.286 27.8742C63.616 28.6142 61.822 29.1142 59.936 29.3402C61.882 28.1757 63.3379 26.3431 64.032 24.1842C62.2037 25.2701 60.2027 26.0345 58.116 26.4442C56.7128 24.9459 54.8541 23.9528 52.8287 23.6191C50.8032 23.2854 48.7242 23.6297 46.9145 24.5987C45.1048 25.5676 43.6656 27.1069 42.8203 28.9776C41.9751 30.8482 41.7711 32.9457 42.24 34.9442C38.5354 34.7581 34.9113 33.7953 31.6029 32.118C28.2945 30.4407 25.3757 28.0865 23.036 25.2082C22.236 26.5882 21.776 28.1882 21.776 29.8922C21.7751 31.4261 22.1529 32.9366 22.8758 34.2896C23.5987 35.6426 24.6443 36.7962 25.92 37.6482C24.4406 37.6011 22.9938 37.2013 21.7 36.4822V36.6022C21.6999 38.7536 22.4441 40.8389 23.8064 42.5041C25.1687 44.1694 27.0652 45.312 29.174 45.7382C27.8016 46.1096 26.3627 46.1643 24.966 45.8982C25.561 47.7494 26.72 49.3682 28.2808 50.528C29.8415 51.6878 31.7259 52.3305 33.67 52.3662C30.3697 54.957 26.2938 56.3623 22.098 56.3562C21.3548 56.3564 20.6122 56.3129 19.874 56.2262C24.133 58.9645 29.0907 60.4178 34.154 60.4122C51.294 60.4122 60.664 46.2162 60.664 33.9042C60.664 33.5042 60.654 33.1002 60.636 32.7002C62.4586 31.3821 64.0318 29.7499 65.282 27.8802L65.286 27.8742V27.8742Z" fill="white"/>
</svg>
