<svg width="84" height="84" viewBox="0 0 84 84" fill="none" xmlns="http://www.w3.org/2000/svg">
<circle cx="42" cy="42" r="42" fill="white" fill-opacity="0.3"/>
<path fill-rule="evenodd" clip-rule="evenodd" d="M32.93 20.132C35.276 20.024 36.024 20 42 20C47.976 20 48.724 20.026 51.068 20.132C53.412 20.238 55.012 20.612 56.412 21.154C57.878 21.708 59.208 22.574 60.308 23.694C61.428 24.792 62.292 26.12 62.844 27.588C63.388 28.988 63.76 30.588 63.868 32.928C63.976 35.278 64 36.026 64 42C64 47.976 63.974 48.724 63.868 51.07C63.762 53.41 63.388 55.01 62.844 56.41C62.292 57.8782 61.4266 59.2084 60.308 60.308C59.208 61.428 57.878 62.292 56.412 62.844C55.012 63.388 53.412 63.76 51.072 63.868C48.724 63.976 47.976 64 42 64C36.024 64 35.276 63.974 32.93 63.868C30.59 63.762 28.99 63.388 27.59 62.844C26.1218 62.2919 24.7916 61.4265 23.692 60.308C22.5728 59.2093 21.7066 57.8798 21.154 56.412C20.612 55.012 20.24 53.412 20.132 51.072C20.024 48.722 20 47.974 20 42C20 36.024 20.026 35.276 20.132 32.932C20.238 30.588 20.612 28.988 21.154 27.588C21.7074 26.1202 22.5742 24.7906 23.694 23.692C24.7921 22.573 26.1209 21.7069 27.588 21.154C28.988 20.612 30.588 20.24 32.928 20.132H32.93ZM50.89 24.092C48.57 23.986 47.874 23.964 42 23.964C36.126 23.964 35.43 23.986 33.11 24.092C30.964 24.19 29.8 24.548 29.024 24.85C27.998 25.25 27.264 25.724 26.494 26.494C25.7641 27.2041 25.2024 28.0686 24.85 29.024C24.548 29.8 24.19 30.964 24.092 33.11C23.986 35.43 23.964 36.126 23.964 42C23.964 47.874 23.986 48.57 24.092 50.89C24.19 53.036 24.548 54.2 24.85 54.976C25.202 55.93 25.764 56.796 26.494 57.506C27.204 58.236 28.07 58.798 29.024 59.15C29.8 59.452 30.964 59.81 33.11 59.908C35.43 60.014 36.124 60.036 42 60.036C47.876 60.036 48.57 60.014 50.89 59.908C53.036 59.81 54.2 59.452 54.976 59.15C56.002 58.75 56.736 58.276 57.506 57.506C58.236 56.796 58.798 55.93 59.15 54.976C59.452 54.2 59.81 53.036 59.908 50.89C60.014 48.57 60.036 47.874 60.036 42C60.036 36.126 60.014 35.43 59.908 33.11C59.81 30.964 59.452 29.8 59.15 29.024C58.75 27.998 58.276 27.264 57.506 26.494C56.7959 25.7641 55.9314 25.2024 54.976 24.85C54.2 24.548 53.036 24.19 50.89 24.092V24.092ZM39.19 48.782C40.7593 49.4353 42.5068 49.5234 44.1339 49.0314C45.761 48.5395 47.1668 47.4978 48.1112 46.0845C49.0557 44.6711 49.4801 42.9737 49.3121 41.2822C49.1441 39.5907 48.394 38.0099 47.19 36.81C46.4225 36.043 45.4944 35.4556 44.4727 35.0903C43.4509 34.725 42.3609 34.5907 41.281 34.6972C40.2011 34.8037 39.1583 35.1484 38.2276 35.7063C37.2969 36.2642 36.5015 37.0215 35.8986 37.9237C35.2957 38.8259 34.9004 39.8506 34.741 40.9239C34.5817 41.9973 34.6623 43.0926 34.9771 44.131C35.2919 45.1695 35.833 46.1252 36.5614 46.9294C37.2899 47.7337 38.1876 48.3664 39.19 48.782ZM34.004 34.004C35.054 32.954 36.3006 32.121 37.6726 31.5527C39.0446 30.9844 40.515 30.6919 42 30.6919C43.485 30.6919 44.9554 30.9844 46.3274 31.5527C47.6994 32.121 48.946 32.954 49.996 34.004C51.046 35.054 51.879 36.3006 52.4473 37.6726C53.0156 39.0446 53.3081 40.515 53.3081 42C53.3081 43.485 53.0156 44.9554 52.4473 46.3274C51.879 47.6994 51.046 48.946 49.996 49.996C47.8753 52.1167 44.9991 53.3081 42 53.3081C39.0009 53.3081 36.1247 52.1167 34.004 49.996C31.8833 47.8753 30.6919 44.9991 30.6919 42C30.6919 39.0009 31.8833 36.1247 34.004 34.004V34.004ZM55.816 32.376C56.0762 32.1305 56.2845 31.8354 56.4286 31.5079C56.5727 31.1805 56.6496 30.8275 56.6548 30.4699C56.66 30.1122 56.5934 29.7571 56.459 29.4256C56.3245 29.0941 56.1249 28.793 55.8719 28.5401C55.619 28.2871 55.3179 28.0875 54.9864 27.953C54.6549 27.8186 54.2998 27.752 53.9421 27.7572C53.5845 27.7624 53.2315 27.8393 52.9041 27.9834C52.5766 28.1275 52.2815 28.3358 52.036 28.596C51.5586 29.1021 51.2973 29.7742 51.3074 30.4699C51.3175 31.1655 51.5984 31.8298 52.0903 32.3217C52.5822 32.8136 53.2465 33.0945 53.9421 33.1046C54.6378 33.1147 55.3099 32.8534 55.816 32.376V32.376Z" fill="white"/>
</svg>
