<svg width="802" height="598" viewBox="0 0 802 598" fill="none" xmlns="http://www.w3.org/2000/svg">
<g clip-path="url(#clip0)">
<path d="M436.314 60.9341C446.771 60.9341 455.248 52.457 455.248 42C455.248 31.543 446.771 23.0659 436.314 23.0659C425.857 23.0659 417.38 31.543 417.38 42C417.38 52.457 425.857 60.9341 436.314 60.9341Z" fill="#11772D"/>
<path d="M434.438 49.2228C434.012 49.2235 433.597 49.0857 433.256 48.8301L433.235 48.8143L428.786 45.4104C428.579 45.2524 428.406 45.0553 428.277 44.8305C428.147 44.6057 428.062 44.3574 428.028 44.1C427.994 43.8426 428.011 43.5809 428.078 43.3301C428.145 43.0792 428.261 42.844 428.419 42.6379C428.577 42.4318 428.774 42.2589 428.999 42.1289C429.224 41.999 429.472 41.9146 429.73 41.8806C429.987 41.8466 430.249 41.8636 430.5 41.9307C430.751 41.9978 430.986 42.1137 431.192 42.2717L434.074 44.4819L440.885 35.5965C441.043 35.3905 441.24 35.2176 441.464 35.0877C441.689 34.9578 441.937 34.8735 442.195 34.8395C442.452 34.8055 442.713 34.8225 442.964 34.8896C443.215 34.9567 443.45 35.0725 443.656 35.2304L443.657 35.2308L443.614 35.2895L443.658 35.2308C444.073 35.5503 444.345 36.0215 444.414 36.5411C444.482 37.0608 444.342 37.5864 444.023 38.0027L436.012 48.4492C435.827 48.6899 435.589 48.8847 435.316 49.0184C435.043 49.1522 434.743 49.2213 434.44 49.2204L434.438 49.2228Z" fill="#FDB141"/>
<path d="M436.314 188.934C446.771 188.934 455.248 180.457 455.248 170C455.248 159.543 446.771 151.066 436.314 151.066C425.857 151.066 417.38 159.543 417.38 170C417.38 180.457 425.857 188.934 436.314 188.934Z" fill="#11772D"/>
<path d="M434.438 177.223C434.012 177.224 433.597 177.086 433.256 176.83L433.235 176.814L428.786 173.41C428.579 173.252 428.406 173.055 428.277 172.831C428.147 172.606 428.062 172.357 428.028 172.1C427.994 171.843 428.011 171.581 428.078 171.33C428.145 171.079 428.261 170.844 428.419 170.638C428.577 170.432 428.774 170.259 428.999 170.129C429.224 169.999 429.472 169.915 429.73 169.881C429.987 169.847 430.249 169.864 430.5 169.931C430.751 169.998 430.986 170.114 431.192 170.272L434.074 172.482L440.885 163.596C441.043 163.39 441.24 163.218 441.464 163.088C441.689 162.958 441.937 162.874 442.195 162.84C442.452 162.806 442.713 162.823 442.964 162.89C443.215 162.957 443.45 163.073 443.656 163.23L443.657 163.231L443.614 163.29L443.658 163.231C444.073 163.55 444.345 164.022 444.414 164.541C444.482 165.061 444.342 165.587 444.023 166.003L436.012 176.449C435.827 176.69 435.589 176.885 435.316 177.019C435.043 177.152 434.743 177.221 434.44 177.22L434.438 177.223Z" fill="#FDB141"/>
<path d="M483.864 368.959C483.803 367.389 484.086 365.825 484.694 364.377C485.303 362.928 486.221 361.631 487.385 360.576C488.549 359.521 489.931 358.734 491.432 358.271C492.933 357.807 494.517 357.679 496.073 357.894L513.414 323.871L523.213 341.127L505.243 370.79C504.709 373.38 503.242 375.684 501.122 377.266C499.002 378.847 496.376 379.596 493.74 379.37C491.105 379.145 488.644 377.96 486.824 376.041C485.004 374.122 483.951 371.603 483.864 368.959L483.864 368.959Z" fill="#FFB7B7"/>
<path d="M564.71 583.194L551.101 583.193L544.627 530.702L564.712 530.703L564.71 583.194Z" fill="#FFB7B7"/>
<path d="M568.18 596.385L524.3 596.384V595.829C524.3 591.299 526.1 586.955 529.303 583.752C532.506 580.549 536.85 578.75 541.379 578.75H541.38L568.181 578.751L568.18 596.385Z" fill="#11772D"/>
<path d="M638.483 583.194L624.874 583.193L618.4 530.702L638.485 530.703L638.483 583.194Z" fill="#FFB7B7"/>
<path d="M641.953 596.385L598.073 596.384V595.829C598.073 591.299 599.873 586.955 603.076 583.752C606.279 580.549 610.623 578.75 615.153 578.75H615.154L641.954 578.751L641.953 596.385Z" fill="#11772D"/>
<path d="M504.767 339.349L498.826 349.25C498.826 349.25 508.727 349.25 510.708 364.102L518.629 354.201L504.767 339.349Z" fill="#E5E5E5"/>
<path d="M608.732 318.556C608.732 318.556 624.575 360.142 627.545 385.886C630.516 411.63 635.466 479.95 635.466 479.95L645.368 568.073L617.644 572.034L605.762 482.92L579.028 394.797L573.087 482.92L568.136 563.122L542.393 564.113L540.412 480.94L529.521 374.994L535.461 324.496L608.732 318.556Z" fill="#11772D"/>
<path d="M564.176 192.918C577.847 192.918 588.929 181.835 588.929 168.164C588.929 154.493 577.847 143.411 564.176 143.411C550.504 143.411 539.422 154.493 539.422 168.164C539.422 181.835 550.504 192.918 564.176 192.918Z" fill="#FFB7B7"/>
<path d="M589.424 192.312L599.326 199.242L612.198 328.952L531.996 330.932L542.888 240.829L552.789 215.085L559.936 205.636L589.424 192.312Z" fill="#E5E5E5"/>
<path d="M591.405 285.386L594.435 195.819C594.435 195.819 600.316 196.272 602.296 199.243C604.277 202.213 636.952 208.154 636.952 208.154L631.011 300.238C631.011 300.238 655.764 373.509 646.853 377.469C637.942 381.43 622.099 380.44 622.099 380.44L591.405 285.386Z" fill="#11772D"/>
<path d="M543.383 273.999L553.886 213.634L530.511 229.442L536.452 273.009L531.501 302.713C531.501 302.713 512.688 384.896 518.629 387.866C524.57 390.837 531.501 387.866 531.501 387.866L543.383 304.693V273.999Z" fill="#11772D"/>
<path d="M537.442 227.462L530.511 229.442L527.54 269.048L522.589 303.703L498.826 346.28C498.826 346.28 510.708 338.359 515.658 361.132L541.829 315.568L537.442 227.462Z" fill="#11772D"/>
<path d="M584.898 144.579L589.566 142.711C589.566 142.711 579.806 131.965 566.227 132.9L570.046 128.695C570.046 128.695 560.71 124.957 552.223 134.768C547.762 139.926 542.6 145.988 539.382 152.817H534.383L536.469 157.411L529.167 162.005L536.662 161.18C536.215 163.696 536.147 166.264 536.458 168.8C536.78 171.337 538.075 173.649 540.069 175.25V175.25C540.069 175.25 545.858 163.267 545.858 161.398V166.07C545.858 166.07 550.526 161.865 550.526 159.062L553.072 162.332L554.345 157.193L570.046 162.332L567.5 158.128L577.26 159.529L573.441 154.39L588.552 175.611C588.552 175.611 597.205 151.587 584.898 144.579Z" fill="#111827"/>
<path d="M591.299 360.839C591.544 359.287 592.126 357.808 593.004 356.505C593.881 355.202 595.034 354.108 596.381 353.299C597.728 352.49 599.235 351.986 600.798 351.823C602.36 351.66 603.94 351.841 605.424 352.354L629.04 322.345L635.302 341.175L611.916 366.785C610.889 369.222 609.003 371.198 606.617 372.338C604.23 373.478 601.508 373.702 598.967 372.97C596.425 372.237 594.241 370.597 592.828 368.361C591.415 366.125 590.871 363.449 591.299 360.839V360.839Z" fill="#FFB7B7"/>
<path d="M631.506 350.24L622.595 361.132L610.713 340.339L615.663 331.428L631.506 350.24Z" fill="#E5E5E5"/>
<path d="M629.526 211.619L637.447 207.659C637.447 207.659 643.388 215.58 644.378 222.511C645.368 229.442 650.319 238.353 650.319 243.304C650.319 248.255 664.181 294.792 664.181 294.792L632.496 359.152C632.496 359.152 625.565 335.388 610.713 333.408L635.467 298.753L621.605 273.999L629.526 211.619Z" fill="#11772D"/>
<path d="M800.921 596.996H419.921C419.656 596.996 419.402 596.891 419.214 596.703C419.027 596.516 418.921 596.261 418.921 595.996C418.921 595.731 419.027 595.476 419.214 595.289C419.402 595.101 419.656 594.996 419.921 594.996H800.921C801.187 594.996 801.441 595.101 801.628 595.289C801.816 595.476 801.921 595.731 801.921 595.996C801.921 596.261 801.816 596.516 801.628 596.703C801.441 596.891 801.187 596.996 800.921 596.996Z" fill="#CBCBCB"/>
<path d="M365 212H0V128H365V212Z" fill="#FDB141"/>
<path d="M52.6779 155.774C51.7357 155.776 50.8326 156.151 50.167 156.818C49.5013 157.485 49.1274 158.389 49.1274 159.331C49.1274 160.273 49.5013 161.177 50.167 161.843C50.8326 162.51 51.7357 162.886 52.6779 162.887H312.337C313.279 162.886 314.182 162.51 314.848 161.843C315.514 161.177 315.888 160.273 315.888 159.331C315.888 158.389 315.514 157.485 314.848 156.818C314.182 156.151 313.279 155.776 312.337 155.774H52.6779Z" fill="#F4F4F4"/>
<path d="M52.6777 177.113C52.2106 177.112 51.748 177.203 51.3161 177.381C50.8843 177.558 50.4917 177.82 50.1607 178.149C49.8298 178.479 49.567 178.87 49.3874 179.301C49.2077 179.732 49.1148 180.195 49.1138 180.662C49.1128 181.129 49.2038 181.591 49.3816 182.023C49.5594 182.455 49.8206 182.848 50.1501 183.179C50.4797 183.51 50.8712 183.772 51.3023 183.952C51.7334 184.132 52.1956 184.225 52.6627 184.226H216.822C217.29 184.226 217.753 184.135 218.185 183.957C218.617 183.778 219.01 183.516 219.341 183.186C219.672 182.856 219.934 182.463 220.113 182.032C220.292 181.6 220.384 181.137 220.384 180.669C220.384 180.202 220.292 179.739 220.113 179.307C219.934 178.875 219.672 178.483 219.341 178.152C219.01 177.822 218.617 177.56 218.185 177.382C217.753 177.203 217.29 177.112 216.822 177.113H52.6777Z" fill="#F4F4F4"/>
<path d="M365 212H0V128H365V212ZM6 206H359V134H6V206Z" fill="#111827"/>
<path d="M365 340H0V256H365V340Z" fill="#FDB141"/>
<path d="M52.6779 283.774C51.7357 283.776 50.8326 284.151 50.167 284.818C49.5013 285.485 49.1274 286.389 49.1274 287.331C49.1274 288.273 49.5013 289.177 50.167 289.843C50.8326 290.51 51.7357 290.886 52.6779 290.887H312.337C313.279 290.886 314.182 290.51 314.848 289.843C315.514 289.177 315.888 288.273 315.888 287.331C315.888 286.389 315.514 285.485 314.848 284.818C314.182 284.151 313.279 283.776 312.337 283.774H52.6779Z" fill="#F4F4F4"/>
<path d="M52.6777 305.113C52.2106 305.112 51.748 305.203 51.3161 305.381C50.8843 305.558 50.4917 305.82 50.1607 306.149C49.8298 306.479 49.567 306.87 49.3874 307.301C49.2077 307.732 49.1148 308.195 49.1138 308.662C49.1128 309.129 49.2038 309.591 49.3816 310.023C49.5594 310.455 49.8206 310.848 50.1501 311.179C50.4797 311.51 50.8712 311.772 51.3023 311.952C51.7334 312.132 52.1956 312.225 52.6627 312.226H216.822C217.29 312.226 217.753 312.135 218.185 311.957C218.617 311.778 219.01 311.516 219.341 311.186C219.672 310.856 219.934 310.463 220.113 310.032C220.292 309.6 220.384 309.137 220.384 308.669C220.384 308.202 220.292 307.739 220.113 307.307C219.934 306.875 219.672 306.483 219.341 306.152C219.01 305.822 218.617 305.56 218.185 305.382C217.753 305.203 217.29 305.112 216.822 305.113H52.6777Z" fill="#F4F4F4"/>
<path d="M365 340H0V256H365V340ZM6 334H359V262H6V334Z" fill="#111827"/>
<path d="M368 84H3V0H368V84Z" fill="#FDB141"/>
<path d="M55.6779 27.7744C54.7357 27.776 53.8326 28.1514 53.167 28.8181C52.5013 29.4849 52.1274 30.3886 52.1274 31.3308C52.1274 32.273 52.5013 33.1767 53.167 33.8434C53.8326 34.5102 54.7357 34.8856 55.6779 34.8872H315.337C316.279 34.8856 317.182 34.5102 317.848 33.8434C318.514 33.1767 318.888 32.273 318.888 31.3308C318.888 30.3886 318.514 29.4849 317.848 28.8181C317.182 28.1514 316.279 27.776 315.337 27.7744H55.6779Z" fill="#F4F4F4"/>
<path d="M55.6777 49.1128C54.7345 49.1108 53.8291 49.4836 53.1607 50.1491C52.4924 50.8147 52.1158 51.7185 52.1138 52.6617C52.1118 53.6049 52.4846 54.5103 53.1501 55.1787C53.8157 55.847 54.7195 56.2236 55.6627 56.2256H219.822C220.29 56.2264 220.753 56.135 221.185 55.9566C221.617 55.7782 222.01 55.5164 222.341 55.1861C222.672 54.8558 222.934 54.4634 223.113 54.0316C223.292 53.5997 223.384 53.1367 223.384 52.6692C223.384 52.2017 223.292 51.7387 223.113 51.3068C222.934 50.875 222.672 50.4827 222.341 50.1523C222.01 49.822 221.617 49.5602 221.185 49.3818C220.753 49.2034 220.29 49.112 219.822 49.1128H55.6777Z" fill="#F4F4F4"/>
<path d="M368 84H3V0H368V84ZM9 78H362V6H9V78Z" fill="#111827"/>
<path d="M739.248 597.457V525.117C739.248 525.117 767.44 576.403 739.248 597.457Z" fill="#F1F1F1"/>
<path d="M740.99 597.445L687.7 548.523C687.7 548.523 744.545 562.439 740.99 597.445Z" fill="#F1F1F1"/>
<path d="M484.314 366.78C494.771 366.78 503.248 358.303 503.248 347.846C503.248 337.389 494.771 328.911 484.314 328.911C473.857 328.911 465.38 337.389 465.38 347.846C465.38 358.303 473.857 366.78 484.314 366.78Z" fill="#11772D"/>
<path d="M482.438 355.068C482.012 355.069 481.597 354.931 481.256 354.676L481.235 354.66L476.785 351.256C476.579 351.098 476.406 350.901 476.276 350.676C476.146 350.451 476.061 350.203 476.027 349.945C475.993 349.688 476.01 349.426 476.077 349.175C476.144 348.924 476.26 348.689 476.418 348.483C476.576 348.276 476.773 348.103 476.998 347.973C477.223 347.843 477.471 347.759 477.729 347.725C477.987 347.691 478.248 347.708 478.499 347.776C478.75 347.843 478.985 347.959 479.192 348.117L482.074 350.327L488.885 341.442C489.042 341.236 489.239 341.063 489.464 340.933C489.689 340.803 489.937 340.719 490.194 340.685C490.452 340.651 490.713 340.668 490.964 340.735C491.215 340.802 491.45 340.918 491.656 341.076L491.656 341.076L491.614 341.135L491.658 341.076C492.073 341.396 492.345 341.867 492.414 342.387C492.482 342.906 492.342 343.432 492.023 343.848L484.012 354.295C483.827 354.536 483.588 354.73 483.316 354.864C483.043 354.998 482.743 355.067 482.439 355.066L482.438 355.068Z" fill="#FDB141"/>
</g>
<defs>
<clipPath id="clip0">
<rect width="801.921" height="597.457" fill="white"/>
</clipPath>
</defs>
</svg>
